<?xml version="1.0" encoding="utf-8"?>
<!-- Generator: Adobe Illustrator 21.0.0, SVG Export Plug-In . SVG Version: 6.00 Build 0)  -->
<svg version="1.1" id="Layer_1" xmlns="http://www.w3.org/2000/svg" xmlns:xlink="http://www.w3.org/1999/xlink" x="0px" y="0px"
	 viewBox="-35.7 0 1000 1000" enable-background="new -35.7 0 1000 1000" xml:space="preserve">
<path fill="#59D3CA" d="M695.9,988.7c-22.2,0-41-7.7-56.5-23.2L231.1,557.1c-15.9-15.9-23.8-34.9-23.8-57.1
	c0-22.6,7.9-41.4,23.8-56.5L639.5,35.2c15.1-15.9,33.9-23.8,56.5-23.8c22.2,0,41.2,7.9,57.1,23.8l47,46.4
	c15.5,16.3,23.2,35.3,23.2,57.1c0,22.2-7.7,41-23.2,56.5L495.2,500l304.9,304.9c15.5,15.5,23.2,34.3,23.2,56.5
	c0,21.7-7.7,40.8-23.2,57.1l-47,47C736.7,981,717.7,988.7,695.9,988.7L695.9,988.7z"/>
</svg>
